# Blender v3.3.1 OBJ File: 'test.blend'
# www.blender.org
o Plane.003_Plane.004
v -10.000000 0.000000 2.000000
v 10.000000 0.000000 2.000000
v -10.000000 0.000000 -2.000000
v 10.000000 0.000000 -2.000000
vt 1.000000 0.000000
vt 0.000000 1.000000
vt 0.000000 0.000000
vt 1.000000 1.000000
vn 0.0000 1.0000 0.0000
s off
f 2/1/1 3/2/1 1/3/1
f 2/1/1 4/4/1 3/2/1
o Plane.004_Plane.005
v -42.000000 0.000000 20.000000
v -10.000000 0.000000 20.000000
v -42.000000 0.000000 -20.000000
v -10.000000 0.000000 -20.000000
vt 1.000000 0.000000
vt 0.000000 1.000000
vt 0.000000 0.000000
vt 1.000000 1.000000
vn 0.0000 1.0000 0.0000
s off
f 6/5/2 7/6/2 5/7/2
f 6/5/2 8/8/2 7/6/2
